<?xml version="1.0" encoding="UTF-8" standalone="no"?>
<svg
   xmlns:dc="http://purl.org/dc/elements/1.1/"
   xmlns:cc="http://creativecommons.org/ns#"
   xmlns:rdf="http://www.w3.org/1999/02/22-rdf-syntax-ns#"
   xmlns:svg="http://www.w3.org/2000/svg"
   xmlns="http://www.w3.org/2000/svg"
   xmlns:sodipodi="http://sodipodi.sourceforge.net/DTD/sodipodi-0.dtd"
   xmlns:inkscape="http://www.inkscape.org/namespaces/inkscape"
   width="2552px"
   height="498px"
   viewBox="0 0 2552 498"
   version="1.1"
   id="svg20"
   sodipodi:docname="logo.svg"
   inkscape:version="0.92.1 r15371">
  <metadata
     id="metadata26">
    <rdf:RDF>
      <cc:Work
         rdf:about="">
        <dc:format>image/svg+xml</dc:format>
        <dc:type
           rdf:resource="http://purl.org/dc/dcmitype/StillImage" />
      </cc:Work>
    </rdf:RDF>
  </metadata>
  <defs
     id="defs24" />
  <sodipodi:namedview
     pagecolor="#ffffff"
     bordercolor="#666666"
     borderopacity="1"
     objecttolerance="10"
     gridtolerance="10"
     guidetolerance="10"
     inkscape:pageopacity="0"
     inkscape:pageshadow="2"
     inkscape:window-width="1301"
     inkscape:window-height="744"
     id="namedview22"
     showgrid="false"
     inkscape:snap-text-baseline="false"
     inkscape:zoom="0.34000001"
     inkscape:cx="1291.7046"
     inkscape:cy="216.27119"
     inkscape:window-x="65"
     inkscape:window-y="24"
     inkscape:window-maximized="1"
     inkscape:current-layer="svg20"
     showguides="true"
     inkscape:guide-bbox="true">
    <sodipodi:guide
       position="864.70587,1238.2353"
       orientation="0,1"
       id="guide986"
       inkscape:locked="false" />
  </sodipodi:namedview>
  <!-- Generator: Sketch 60.1 (88133) - https://sketch.com -->
  <title
     id="title2">logo</title>
  <desc
     id="desc4">Created with Sketch.</desc>
  <style
     id="style28"
     type="text/css">
	.st0{fill:#FF3E00;}
	.st1{fill:#FFFFFF;}
</style>
  <g
     id="g999">
    <g
       transform="translate(193,289)"
       id="Group-Copy-3"
       style="fill:none;fill-rule:evenodd;stroke:none;stroke-width:1" />
    <path
       id="path30"
       d="M 386.4544,75.864171 C 342.70958,12.855579 255.62128,-5.6055365 193.01402,34.125996 L 82.64865,104.75983 c -30.099645,18.86244 -50.968735,49.76475 -56.988662,84.68033 -5.217277,29.297 -0.80266,59.39664 13.243843,85.483 -9.631885,14.44783 -16.053142,30.50098 -18.86245,47.35678 -6.421257,35.71824 2.006649,72.64047 22.875738,101.93746 44.146139,63.00859 130.833121,81.46971 193.440391,41.73818 l 110.36536,-70.23251 c 30.09965,-18.86245 50.96873,-49.76474 56.98867,-84.68034 5.21726,-29.29698 0.80264,-59.39663 -13.24385,-85.48299 9.63189,-14.44783 16.05314,-30.50097 18.86244,-47.35677 6.82259,-36.11958 -1.60532,-73.04181 -22.87573,-102.338799"
       class="st0"
       inkscape:connector-curvature="0"
       style="fill:#ff4154;fill-opacity:1;stroke:#002b3b;stroke-width:19.31373596;stroke-miterlimit:4;stroke-dasharray:none;stroke-opacity:1" />
    <path
       id="path32"
       d="m 182.17814,430.23733 c -35.71824,9.23056 -73.0418,-4.81594 -93.910892,-34.91559 -12.842514,-17.65846 -17.658462,-39.73153 -14.046503,-61.40328 0.802659,-3.61196 1.605319,-6.82258 2.407968,-10.43454 l 2.006649,-6.42126 5.618598,4.01329 c 13.243843,9.63188 27.69168,16.8558 43.34349,21.67175 l 4.01329,1.20398 -0.40133,4.01329 c -0.40133,5.61859 1.20399,11.63853 4.41461,16.45447 6.42126,9.23055 17.65847,13.64517 28.49433,10.83587 2.40798,-0.80266 4.81595,-1.60532 6.82259,-2.8093 l 109.96403,-70.2325 c 5.61861,-3.61196 9.23057,-8.82924 10.43455,-15.2505 1.20399,-6.42125 -0.40133,-13.24384 -4.01329,-18.46111 -6.42126,-9.23055 -17.65845,-13.24384 -28.49432,-10.43454 -2.40797,0.80266 -4.81595,1.60531 -6.82259,2.8093 l -42.1395,26.88901 c -6.82259,4.41462 -14.44783,7.62525 -22.47441,9.63189 -35.71824,9.23056 -73.0418,-4.81594 -93.910895,-34.91558 C 81.043331,244.82351 75.826064,222.75044 79.839352,201.0787 83.4513,180.20961 96.293824,161.34717 114.35361,150.10996 L 224.71897,79.877457 c 6.82259,-4.414615 14.44783,-7.625244 22.4744,-10.033215 35.71825,-9.230559 73.04182,4.815942 93.9109,34.915588 12.84252,17.65845 17.65846,39.73153 14.0465,61.40327 -0.80266,3.61196 -1.60531,6.82259 -2.8093,10.43455 l -2.00664,6.42125 -5.61861,-4.01327 c -13.24384,-9.6319 -27.69166,-16.85581 -43.34349,-21.67175 l -4.01328,-1.20399 0.40133,-4.01328 c 0.40133,-5.61861 -1.20398,-11.63853 -4.41461,-16.45448 -6.42126,-9.23056 -17.65846,-13.24385 -28.49434,-10.43454 -2.40797,0.80265 -4.81594,1.60531 -6.82258,2.8093 L 148.06521,198.2694 c -5.6186,3.61196 -9.23056,8.82922 -10.43455,15.25048 -1.20398,6.42126 0.40133,13.24384 4.01329,18.46112 6.42126,9.23056 17.65846,13.24384 28.49434,10.43455 2.40797,-0.80266 4.81594,-1.60532 6.82257,-2.80931 l 42.13951,-26.88902 c 6.82259,-4.41461 14.44784,-7.62524 22.4744,-10.03321 35.71825,-9.23056 73.04181,4.81594 93.9109,34.91559 12.84251,17.65846 17.65846,39.73153 14.0465,61.40328 -3.61196,20.86908 -16.45447,39.73153 -34.51426,50.96872 l -110.36537,70.23251 c -6.82259,4.41462 -14.44782,7.62525 -22.4744,10.03322"
       class="st1"
       inkscape:connector-curvature="0"
       style="fill:#ffffff;stroke-width:4.01328611" />
    <path
       id="path32-3"
       d="m 182.17814,430.23733 c -35.71824,9.23056 -73.0418,-4.81594 -93.910892,-34.91559 -12.842514,-17.65846 -17.658462,-39.73153 -14.046503,-61.40328 0.802659,-3.61196 1.605319,-6.82258 2.407968,-10.43454 l 2.006649,-6.42126 5.618598,4.01329 c 13.243843,9.63188 27.69168,16.8558 43.34349,21.67175 l 4.01329,1.20398 -0.40133,4.01329 c -0.40133,5.61859 1.20399,11.63853 4.41461,16.45447 6.42126,9.23055 17.65847,13.64517 28.49433,10.83587 2.40798,-0.80266 4.81595,-1.60532 6.82259,-2.8093 l 109.96403,-70.2325 c 5.61861,-3.61196 9.23057,-8.82924 10.43455,-15.2505 1.20399,-6.42125 -0.40133,-13.24384 -4.01329,-18.46111 -6.42126,-9.23055 -17.65845,-13.24384 -28.49432,-10.43454 -2.40797,0.80266 -4.81595,1.60531 -6.82259,2.8093 l -42.1395,26.88901 c -6.82259,4.41462 -14.44783,7.62525 -22.47441,9.63189 -35.71824,9.23056 -73.0418,-4.81594 -93.910895,-34.91558 C 81.043331,244.82351 75.826064,222.75044 79.839352,201.0787 83.4513,180.20961 96.293824,161.34717 114.35361,150.10996 L 224.71897,79.877455 c 6.82259,-4.414618 14.44783,-7.625246 22.4744,-10.033215 35.71825,-9.230556 73.04182,4.815938 93.9109,34.91559 12.84252,17.65845 17.65846,39.73153 14.0465,61.40327 -0.80266,3.61196 -1.60531,6.82259 -2.8093,10.43455 l -2.00664,6.42125 -5.61861,-4.01327 c -13.24384,-9.6319 -27.69166,-16.85581 -43.34349,-21.67175 l -4.01328,-1.20399 0.40133,-4.01328 c 0.40133,-5.61861 -1.20398,-11.63853 -4.41461,-16.45448 -6.42126,-9.23056 -17.65846,-13.24385 -28.49434,-10.43454 -2.40797,0.80265 -4.81594,1.60531 -6.82258,2.8093 L 148.06521,198.2694 c -5.6186,3.61196 -9.23056,8.82922 -10.43455,15.25048 -1.20398,6.42126 0.40133,13.24384 4.01329,18.46112 6.42126,9.23056 17.65846,13.24384 28.49434,10.43455 2.40797,-0.80266 4.81594,-1.60532 6.82257,-2.80931 l 42.13951,-26.88902 c 6.82259,-4.41461 14.44784,-7.62524 22.4744,-10.03321 35.71825,-9.23056 73.04181,4.81594 93.9109,34.91559 12.84251,17.65846 17.65846,39.73153 14.0465,61.40328 -3.61196,20.86908 -16.45447,39.73153 -34.51426,50.96872 l -110.36537,70.23251 c -6.82259,4.41462 -14.44782,7.62525 -22.4744,10.03322"
       class="st1"
       inkscape:connector-curvature="0"
       style="fill:#002b3b;fill-opacity:1;stroke:#ffd94c;stroke-width:17.38236237;stroke-miterlimit:4;stroke-dasharray:none;stroke-opacity:1" />
    <path
       d="m 640.05907,109.85389 v 51.05273 q -17.80489,-8.88576 -34.74124,-13.40941 -16.93635,-4.52367 -31.9909,-4.52367 -19.97621,0 -29.53005,6.13925 -9.55384,6.13926 -9.55384,19.064 0,9.69357 6.36923,15.18658 6.51398,5.33146 23.45034,9.20888 l 23.73984,5.33145 q 36.04404,8.07797 51.24333,24.55702 15.1993,16.47905 15.1993,46.8522 0,39.90515 -21.27901,59.45381 -21.13427,19.38713 -64.70557,19.38713 -20.55523,0 -41.25522,-4.36211 -20.69998,-4.3621 -41.39998,-12.92474 v -52.50677 q 20.7,12.2785 39.95243,18.57932 19.39719,6.13925 37.34684,6.13925 18.23915,0 27.93774,-6.78549 9.6986,-6.78549 9.6986,-19.38712 0,-11.30914 -6.65874,-17.4484 -6.51398,-6.13925 -26.20069,-10.98603 l -21.56852,-5.33146 q -32.42516,-7.75485 -47.47969,-24.71858 -14.90978,-16.96372 -14.90978,-45.72128 0,-36.02772 20.84474,-55.41484 20.84475,-19.387112 59.92864,-19.387112 17.80489,0 36.62306,3.069622 18.81816,2.90807 38.93914,8.88577 z"
       style="font-style:normal;font-variant:normal;font-weight:bold;font-stretch:normal;font-size:313.19366455px;line-height:1.25;font-family:KacstOne;-inkscape-font-specification:'KacstOne, Bold';font-variant-ligatures:normal;font-variant-caps:normal;font-variant-numeric:normal;font-feature-settings:normal;text-align:start;letter-spacing:-11.23000622px;word-spacing:0px;writing-mode:lr-tb;text-anchor:start;fill:#00435b;fill-opacity:1;stroke:none;stroke-width:2.80192065;stroke-miterlimit:4;stroke-dasharray:none"
       id="path15"
       inkscape:connector-curvature="0" />
    <path
       d="m 669.96056,164.52222 h 51.82234 l 40.3867,125.04689 40.24194,-125.04689 h 51.9671 l -63.83702,180.94641 h -56.88879 z"
       style="font-style:normal;font-variant:normal;font-weight:bold;font-stretch:normal;font-size:313.19366455px;line-height:1.25;font-family:KacstOne;-inkscape-font-specification:'KacstOne, Bold';font-variant-ligatures:normal;font-variant-caps:normal;font-variant-numeric:normal;font-feature-settings:normal;text-align:start;letter-spacing:-11.23000622px;word-spacing:0px;writing-mode:lr-tb;text-anchor:start;fill:#00435b;fill-opacity:1;stroke:none;stroke-width:2.80192065;stroke-miterlimit:4;stroke-dasharray:none"
       id="path17"
       inkscape:connector-curvature="0" />
    <path
       d="m 1063.4242,94.082363 h 51.8223 V 345.46863 h -51.8223 z"
       style="font-style:normal;font-variant:normal;font-weight:bold;font-stretch:normal;font-size:313.19366455px;line-height:1.25;font-family:KacstOne;-inkscape-font-specification:'KacstOne, Bold';font-variant-ligatures:normal;font-variant-caps:normal;font-variant-numeric:normal;font-feature-settings:normal;text-align:start;letter-spacing:-11.23000622px;word-spacing:0px;writing-mode:lr-tb;text-anchor:start;fill:#00435b;fill-opacity:1;stroke:none;stroke-width:2.80192065;stroke-miterlimit:4;stroke-dasharray:none"
       id="path21"
       inkscape:connector-curvature="0" />
    <path
       style="font-style:normal;font-weight:normal;font-size:112.076828px;line-height:1.25;font-family:sans-serif;letter-spacing:-11.23000622px;word-spacing:0px;fill:#00435b;fill-opacity:1;fill-rule:nonzero;stroke:none;stroke-width:1;stroke-miterlimit:4;stroke-dasharray:none"
       d="m 1678.5104,78.383857 c -16.324,0 -31.1016,2.597008 -44.3341,7.791002 -13.232,5.194005 -24.1772,12.182567 -32.8339,20.962901 -8.6567,8.78034 -15.8908,18.98276 -21.7031,30.60742 -5.8123,11.62468 -10.0182,23.68156 -12.6152,36.17189 -2.597,12.49032 -3.8946,25.41353 -3.8946,38.76953 0,13.356 1.2976,26.2792 3.8946,38.76952 2.597,12.49034 6.8029,24.54721 12.6152,36.17188 5.8123,11.62468 13.0464,21.82708 21.7031,30.60743 8.6567,8.78031 19.6019,15.76888 32.8339,20.96288 13.2325,5.19399 28.0101,7.79101 44.3341,7.79102 12.3667,0 24.3616,-1.60889 35.9863,-4.82421 l 20.7774,30.42186 41.5507,-26.71093 -20.0332,-29.31054 c 24.4859,-25.47533 36.7286,-60.10092 36.7286,-103.87891 0,-16.81867 -2.1638,-32.89582 -6.4922,-48.23048 -4.3283,-15.33466 -10.8218,-29.61728 -19.4786,-42.84961 -8.6565,-13.23233 -20.6518,-23.744157 -35.9862,-31.535157 -15.335,-7.791012 -33.0188,-11.687496 -53.0528,-11.687496 z m 0,54.166023 c 13.3561,0 24.4866,4.26778 33.3906,12.80078 8.9039,8.533 14.9626,18.54978 18.1778,30.05077 3.2152,11.50101 4.8241,23.92917 4.8241,37.28517 0,21.76533 -3.9583,39.32564 -11.8729,52.68164 l -20.7755,-31.16406 -41.9238,27.08397 21.1484,30.79298 h -1.8555 l -1.1132,0.3711 c -10.1406,0 -19.0456,-2.41334 -26.7129,-7.23634 -7.6673,-4.823 -13.6021,-11.25268 -17.8067,-19.29102 -4.2048,-8.03833 -7.2966,-16.51005 -9.2754,-25.41405 -1.9787,-8.90401 -2.9687,-18.17822 -2.9687,-27.82422 0,-12.86133 1.609,-25.04197 4.8243,-36.54298 3.2153,-11.50098 9.3355,-21.64154 18.3632,-30.42186 9.0276,-8.78034 20.2203,-13.17188 33.5762,-13.17188 z m 410.7188,15.95312 c -27.7015,0 -49.6534,8.9049 -65.8537,26.7129 -16.2002,17.80799 -24.3007,41.92174 -24.3007,72.34374 0,31.164 8.0386,55.52722 24.1153,73.08789 16.0767,17.56068 38.0904,26.3418 66.0391,26.3418 30.1745,0 54.7834,-11.50192 73.8281,-34.50391 l -31.1642,-31.16406 c -11.1299,13.356 -25.3507,20.0332 -42.6639,20.0332 -10.6354,0 -19.4166,-2.90446 -26.3418,-8.7168 -6.9253,-5.81231 -10.6362,-14.65534 -11.131,-26.52733 h 121.3184 c 0.9892,-6.43068 1.4843,-15.70489 1.4843,-27.82422 0,-29.18533 -7.915,-51.44657 -23.744,-66.78125 -15.8294,-15.33467 -36.358,-23.00196 -61.5859,-23.00196 z m 191.6308,0 c -8.6569,0 -16.2002,2.34949 -22.6308,7.04884 -6.4309,4.69933 -10.8822,9.52209 -13.3555,14.46873 v -17.06444 h -53.7949 v 189.58008 h 53.7949 V 239.76863 c 0,-26.21733 10.883,-39.32617 32.6484,-39.32617 12.1192,0 23.3717,4.32964 33.7597,12.98632 l 5.2598,-36.54492 62.459,163.42578 -28.5664,74.20117 h 55.6484 l 100.9121,-261.55468 h -55.2792 l -38.2129,101.2832 c -2.7208,7.42 -4.6991,13.35465 -5.9357,17.80664 -1.2365,-4.45199 -3.2146,-10.38664 -5.9354,-17.80664 l -38.584,-101.2832 h -55.6505 l 1.3321,3.48242 c -8.1243,-5.28213 -17.4108,-7.93555 -27.8691,-7.93555 z m -471.1914,4.45313 V 276.128 c 0,12.86132 2.042,24.11377 6.1231,33.75976 4.0811,9.646 9.4588,17.06577 16.1366,22.25977 6.6781,5.19401 13.6047,8.96674 20.7774,11.31641 7.1727,2.34967 14.5926,3.52538 22.2598,3.52539 22.7547,0 40.0674,-7.29795 51.9394,-21.89062 v 17.4375 h 53.795 V 152.95613 h -53.795 v 99.42774 c 0,14.59267 -2.6588,25.352 -7.9765,32.27733 -5.3176,6.92534 -13.6657,10.38672 -25.043,10.38672 -11.3773,0 -19.29,-3.46138 -23.7422,-10.38672 -4.452,-6.92533 -6.6797,-17.9322 -6.6797,-33.01952 v -98.68555 z m 277.334,41.17969 c 21.2707,0 33.2656,10.51181 35.9863,31.53516 h -70.8613 c 1.2367,-9.89335 4.9476,-17.62252 11.1309,-23.1875 6.1833,-5.565 14.0982,-8.34766 23.7441,-8.34766 z"
       id="ReactQuery-3"
       inkscape:connector-curvature="0" />
    <path
       style="font-style:normal;font-weight:normal;font-size:112.076828px;line-height:1.25;font-family:sans-serif;letter-spacing:-11.23000622px;word-spacing:0px;fill:#00435b;fill-opacity:1;fill-rule:nonzero;stroke:none;stroke-width:1;stroke-miterlimit:4;stroke-dasharray:none"
       d="m 950.44981,149.85159 c -27.70153,0 -49.65321,8.90489 -65.8535,26.7129 -16.2003,17.80798 -24.30078,41.92174 -24.30078,72.34374 0,31.164 8.03856,55.52722 24.11523,73.08789 16.07667,17.56069 38.09037,26.34181 66.03905,26.34179 30.17445,0 54.78339,-11.50192 73.82809,-34.5039 l -31.16398,-31.16406 c -11.12992,13.356 -25.35094,20.0332 -42.66411,20.0332 -10.63542,0 -19.41661,-2.90446 -26.34178,-8.7168 -6.92527,-5.8123 -10.63609,-14.65535 -11.13086,-26.52733 h 121.31833 c 0.9892,-6.43069 1.4844,-15.70489 1.4844,-27.82422 0,-29.18533 -7.9151,-51.44657 -23.7441,-66.78125 -15.82945,-15.33468 -36.35811,-23.00196 -61.58599,-23.00196 z m -2.22652,45.63282 c 21.27067,0 33.26556,10.51179 35.98628,31.53516 h -70.86131 c 1.23669,-9.89336 4.9476,-17.62253 11.13086,-23.1875 6.18335,-5.565 14.09824,-8.34766 23.74417,-8.34766 z"
       id="ReactQuery-3-6"
       inkscape:connector-curvature="0" />
    <path
       inkscape:connector-curvature="0"
       style="font-style:normal;font-weight:normal;font-size:112.076828px;line-height:1.25;font-family:sans-serif;letter-spacing:-11.23000622px;word-spacing:0px;fill:#00435b;fill-opacity:1;fill-rule:nonzero;stroke:none;stroke-width:1;stroke-miterlimit:4;stroke-dasharray:none"
       d="m 1395.8283,149.34921 c -27.7015,0 -49.6532,8.90489 -65.8535,26.71288 -16.2003,17.80799 -24.3007,41.92176 -24.3007,72.34376 0,31.16398 8.0385,55.52722 24.1152,73.08789 16.0767,17.56067 38.0904,26.34181 66.039,26.34179 30.1744,0 54.7835,-11.50192 73.8282,-34.5039 l -31.1641,-31.16406 c -11.1299,13.356 -25.3509,20.0332 -42.6641,20.0332 -10.6354,0 -19.4166,-2.90446 -26.3417,-8.7168 -6.9253,-5.81232 -10.6361,-14.65535 -11.1309,-26.52735 h 121.3183 c 0.9892,-6.43067 1.4844,-15.70489 1.4844,-27.82422 0,-29.18533 -7.9151,-51.44657 -23.7441,-66.78125 -15.8295,-15.33466 -36.3581,-23.00194 -61.586,-23.00194 z m -2.2265,45.6328 c 21.2706,0 33.2655,10.51181 35.9863,31.53516 h -70.8613 c 1.2367,-9.89334 4.9476,-17.62251 11.1308,-23.1875 6.1834,-5.565 14.0983,-8.34766 23.7442,-8.34766 z"
       id="ReactQuery-3-6-7" />
    <path
       style="font-style:normal;font-weight:normal;font-size:112.076828px;line-height:1.25;font-family:sans-serif;letter-spacing:-11.23000622px;word-spacing:0px;fill:#00435b;fill-opacity:1;fill-rule:nonzero;stroke:none;stroke-width:1;stroke-miterlimit:4;stroke-dasharray:none"
       d="m 1232.6414,74.514688 -53.4238,25.599612 v 52.68165 h -25.9707 v 46.67969 a 34.05551,78.509649 0 0 1 0.248,0.43749 h 25.7227 v 94.97657 c 0,34.62667 15.9534,51.93944 47.8594,51.93944 17.0659,0 31.4105,-2.84452 43.0351,-8.5332 l 5.9375,-45.26172 c -10.8827,4.94667 -21.7656,7.41993 -32.6484,7.41993 -2.9681,0 -5.5031,-0.92821 -7.6056,-2.78321 -2.1022,-1.855 -3.1542,-4.51388 -3.1542,-7.97656 v -89.78125 h 41.1817 v -47.11718 h -41.1817 z"
       id="ReactQuery-5"
       inkscape:connector-curvature="0" />
  </g>
</svg>
